<svg xmlns="http://www.w3.org/2000/svg" xmlns:xlink="http://www.w3.org/1999/xlink" width="500" zoomAndPan="magnify" viewBox="0 0 375 374.999991" height="500" preserveAspectRatio="xMidYMid meet" version="1.0"><defs><g/><clipPath id="c5a18d97a5"><path d="M 18.570312 79 L 356.554688 79 L 356.554688 224 L 18.570312 224 Z M 18.570312 79 " clip-rule="nonzero"/></clipPath><clipPath id="d188072961"><path d="M 209.050781 129.320312 L 254.925781 175.199219 L 274.390625 148.785156 L 356.417969 216.90625 L 283.300781 116.855469 C 280.1875 112.597656 273.902344 112.394531 270.519531 116.453125 L 249.363281 141.832031 L 205.03125 82.3125 C 201.8125 78 195.363281 77.945312 192.09375 82.222656 L 143.703125 145.3125 L 111.039062 101.757812 C 107.660156 97.253906 100.824219 97.476562 97.757812 102.203125 L 18.582031 223.859375 L 90.875 159.90625 " clip-rule="nonzero"/></clipPath><clipPath id="44c055abbe"><path d="M 114.28125 134 L 188.308594 134 L 188.308594 176.996094 L 114.28125 176.996094 Z M 114.28125 134 " clip-rule="nonzero"/></clipPath><clipPath id="753e2211aa"><path d="M 114.511719 148.785156 L 154.832031 176.585938 L 188.15625 134.316406 " clip-rule="nonzero"/></clipPath><clipPath id="7aa8719a8a"><path d="M 65.679688 201 L 141.949219 201 L 141.949219 270.464844 L 65.679688 270.464844 Z M 65.679688 201 " clip-rule="nonzero"/></clipPath><clipPath id="546e66178d"><path d="M 124.269531 224.105469 C 126.289062 215.265625 123.957031 210.847656 117.273438 210.847656 C 113.839844 210.847656 110.851562 212.03125 108.304688 214.402344 C 105.828125 216.710938 104.171875 219.71875 103.324219 223.421875 C 101.335938 232.144531 105.003906 236.503906 114.324219 236.503906 L 121.4375 236.503906 Z M 110.703125 246.207031 C 95.597656 246.207031 88.757812 240.179688 90.175781 228.117188 L 88.128906 228.117188 C 85.421875 228.117188 83.464844 229.003906 82.242188 230.757812 C 81.019531 232.515625 80.261719 235.589844 79.953125 239.960938 L 77.824219 270.449219 L 65.972656 270.449219 L 67.984375 240.867188 C 68.476562 233.910156 70.519531 228.5 74.101562 224.644531 C 78.035156 220.484375 83.582031 218.40625 90.753906 218.40625 L 92.988281 218.40625 C 95.285156 213.277344 98.726562 209.175781 103.316406 206.097656 C 108.265625 202.792969 113.941406 201.132812 120.355469 201.132812 C 134.417969 201.132812 139.824219 208.289062 136.554688 222.597656 L 133.382812 236.496094 L 141.308594 236.496094 L 139.097656 246.199219 Z M 110.703125 246.207031 " clip-rule="nonzero"/></clipPath><clipPath id="6616090d9a"><path d="M 136 236.066406 L 166.625 236.066406 L 166.625 246.535156 L 136 246.535156 Z M 136 236.066406 " clip-rule="nonzero"/></clipPath><clipPath id="e7706e98fa"><path d="M 138.761719 236.503906 L 166.242188 236.503906 L 164.027344 246.207031 L 136.546875 246.207031 Z M 138.761719 236.503906 " clip-rule="nonzero"/></clipPath><clipPath id="fd87a7cdaa"><path d="M 161 201 L 227.941406 201 L 227.941406 246.535156 L 161 246.535156 Z M 161 201 " clip-rule="nonzero"/></clipPath><clipPath id="157c60cd17"><path d="M 210.453125 224.105469 C 212.46875 215.265625 210.152344 210.847656 203.5 210.847656 C 200.066406 210.847656 197.066406 212.03125 194.484375 214.402344 C 192.019531 216.710938 190.351562 219.71875 189.511719 223.421875 C 187.523438 232.144531 191.191406 236.503906 200.515625 236.503906 L 207.625 236.503906 Z M 198.296875 246.207031 C 188.238281 246.207031 181.824219 243.777344 179.042969 238.917969 C 176.050781 243.777344 170.558594 246.207031 162.566406 246.207031 L 161.15625 246.207031 L 163.375 236.503906 C 167.019531 236.503906 169.914062 235.609375 172.054688 233.8125 C 174.414062 231.839844 176.140625 228.492188 177.210938 223.785156 C 178.652344 217.460938 181.863281 212.210938 186.828125 208.019531 C 192.308594 203.429688 198.910156 201.132812 206.628906 201.132812 C 220.699219 201.132812 226.097656 208.289062 222.828125 222.597656 L 219.65625 236.496094 L 227.492188 236.496094 L 225.273438 246.199219 Z M 198.296875 246.207031 " clip-rule="nonzero"/></clipPath><clipPath id="c222640412"><path d="M 223.453125 236.066406 L 254 236.066406 L 254 246.535156 L 223.453125 246.535156 Z M 223.453125 236.066406 " clip-rule="nonzero"/></clipPath><clipPath id="b7d5b6d8a1"><path d="M 226.03125 236.503906 L 253.511719 236.503906 L 251.296875 246.207031 L 223.816406 246.207031 Z M 226.03125 236.503906 " clip-rule="nonzero"/></clipPath><clipPath id="3ca27d9326"><path d="M 250 182.226562 L 308 182.226562 L 308 246.535156 L 250 246.535156 Z M 250 182.226562 " clip-rule="nonzero"/></clipPath><clipPath id="2e2b4c8d2e"><path d="M 294.070312 193.386719 C 293.132812 192.171875 292.863281 190.6875 293.265625 188.917969 C 293.671875 187.148438 294.617188 185.652344 296.117188 184.410156 C 297.585938 183.164062 299.183594 182.542969 300.917969 182.542969 C 302.621094 182.542969 303.933594 183.164062 304.863281 184.410156 C 305.769531 185.625 306.015625 187.132812 305.613281 188.917969 C 305.214844 190.648438 304.285156 192.132812 302.816406 193.386719 C 301.316406 194.632812 299.71875 195.253906 298.015625 195.253906 C 296.28125 195.253906 294.96875 194.632812 294.0625 193.386719 M 278.566406 193.386719 C 277.628906 192.171875 277.359375 190.6875 277.765625 188.917969 C 278.167969 187.148438 279.113281 185.652344 280.613281 184.410156 C 282.085938 183.164062 283.683594 182.542969 285.414062 182.542969 C 287.175781 182.542969 288.503906 183.164062 289.40625 184.410156 C 290.34375 185.625 290.605469 187.132812 290.199219 188.917969 C 289.800781 190.648438 288.855469 192.132812 287.355469 193.386719 C 285.855469 194.640625 284.246094 195.253906 282.511719 195.253906 C 280.78125 195.253906 279.46875 194.632812 278.558594 193.386719 M 293.917969 224.105469 C 295.9375 215.265625 293.621094 210.847656 286.96875 210.847656 C 283.53125 210.847656 280.53125 212.03125 277.953125 214.402344 C 275.476562 216.710938 273.820312 219.71875 272.972656 223.421875 C 270.984375 232.144531 274.652344 236.503906 283.976562 236.503906 L 291.085938 236.503906 Z M 250.226562 246.207031 L 252.4375 236.503906 L 257.769531 236.503906 C 259.929688 236.503906 261.609375 236.714844 262.816406 237.140625 C 259.929688 234.621094 259.21875 230.167969 260.671875 223.792969 C 262.113281 217.46875 265.320312 212.21875 270.289062 208.027344 C 275.769531 203.4375 282.371094 201.140625 290.085938 201.140625 C 304.15625 201.140625 309.558594 208.296875 306.285156 222.605469 L 300.894531 246.214844 Z M 250.226562 246.207031 " clip-rule="nonzero"/></clipPath></defs><g clip-path="url(#c5a18d97a5)"><g clip-path="url(#d188072961)"><path fill="#019246" d="M 14.832031 75.300781 L 360.292969 75.300781 L 360.292969 274.203125 L 14.832031 274.203125 Z M 14.832031 75.300781 " fill-opacity="1" fill-rule="nonzero"/></g></g><g clip-path="url(#44c055abbe)"><g clip-path="url(#753e2211aa)"><path fill="#019246" d="M 14.832031 75.300781 L 360.292969 75.300781 L 360.292969 274.203125 L 14.832031 274.203125 Z M 14.832031 75.300781 " fill-opacity="1" fill-rule="nonzero"/></g></g><g clip-path="url(#7aa8719a8a)"><g clip-path="url(#546e66178d)"><path fill="#019246" d="M 14.832031 75.300781 L 360.292969 75.300781 L 360.292969 274.203125 L 14.832031 274.203125 Z M 14.832031 75.300781 " fill-opacity="1" fill-rule="nonzero"/></g></g><g clip-path="url(#6616090d9a)"><g clip-path="url(#e7706e98fa)"><path fill="#019246" d="M 14.832031 75.300781 L 360.292969 75.300781 L 360.292969 274.203125 L 14.832031 274.203125 Z M 14.832031 75.300781 " fill-opacity="1" fill-rule="nonzero"/></g></g><g clip-path="url(#fd87a7cdaa)"><g clip-path="url(#157c60cd17)"><path fill="#019246" d="M 14.832031 75.300781 L 360.292969 75.300781 L 360.292969 274.203125 L 14.832031 274.203125 Z M 14.832031 75.300781 " fill-opacity="1" fill-rule="nonzero"/></g></g><g clip-path="url(#c222640412)"><g clip-path="url(#b7d5b6d8a1)"><path fill="#019246" d="M 14.832031 75.300781 L 360.292969 75.300781 L 360.292969 274.203125 L 14.832031 274.203125 Z M 14.832031 75.300781 " fill-opacity="1" fill-rule="nonzero"/></g></g><g clip-path="url(#3ca27d9326)"><g clip-path="url(#2e2b4c8d2e)"><path fill="#019246" d="M 14.832031 75.300781 L 360.292969 75.300781 L 360.292969 274.203125 L 14.832031 274.203125 Z M 14.832031 75.300781 " fill-opacity="1" fill-rule="nonzero"/></g></g><g fill="#008f88" fill-opacity="1"><g transform="translate(83.17684, 278.637656)"><g><path d="M 1.046875 -1.125 C 1.046875 -2.03125 1.171875 -3.1875 1.421875 -4.59375 C 1.671875 -6.007812 2.238281 -7.691406 3.125 -9.640625 L 8.046875 -7.921875 C 7.585938 -6.671875 7.238281 -5.597656 7 -4.703125 C 6.757812 -3.804688 6.640625 -2.929688 6.640625 -2.078125 C 6.640625 -0.453125 7.335938 0.90625 8.734375 2 C 10.140625 3.09375 12.191406 3.640625 14.890625 3.640625 C 16.941406 3.640625 18.679688 3.398438 20.109375 2.921875 C 21.535156 2.441406 22.625 1.875 23.375 1.21875 C 24.125 0.5625 24.5 -0.03125 24.5 -0.5625 C 24.5 -0.9375 24.1875 -1.269531 23.5625 -1.5625 C 22.9375 -1.851562 22.160156 -2.160156 21.234375 -2.484375 C 20.316406 -2.804688 19.40625 -3.207031 18.5 -3.6875 C 17.59375 -4.164062 16.820312 -4.785156 16.1875 -5.546875 C 15.5625 -6.304688 15.25 -7.285156 15.25 -8.484375 C 15.25 -9.492188 15.515625 -10.609375 16.046875 -11.828125 C 16.585938 -13.046875 17.347656 -14.207031 18.328125 -15.3125 C 19.316406 -16.414062 20.5 -17.320312 21.875 -18.03125 C 23.25 -18.738281 24.765625 -19.09375 26.421875 -19.09375 C 27.597656 -19.09375 28.664062 -18.90625 29.625 -18.53125 C 30.582031 -18.15625 31.410156 -17.726562 32.109375 -17.25 L 30.015625 -12.5625 C 28.816406 -13.34375 27.601562 -13.734375 26.375 -13.734375 C 25.394531 -13.734375 24.476562 -13.484375 23.625 -12.984375 C 22.769531 -12.492188 22.082031 -11.890625 21.5625 -11.171875 C 21.039062 -10.453125 20.78125 -9.769531 20.78125 -9.125 C 20.78125 -8.644531 21.007812 -8.222656 21.46875 -7.859375 C 21.9375 -7.503906 22.546875 -7.171875 23.296875 -6.859375 C 24.046875 -6.554688 24.832031 -6.242188 25.65625 -5.921875 C 26.488281 -5.597656 27.273438 -5.238281 28.015625 -4.84375 C 28.765625 -4.445312 29.375 -3.96875 29.84375 -3.40625 C 30.3125 -2.84375 30.546875 -2.160156 30.546875 -1.359375 C 30.546875 -0.179688 30.191406 1.015625 29.484375 2.234375 C 28.773438 3.460938 27.726562 4.609375 26.34375 5.671875 C 24.957031 6.742188 23.253906 7.609375 21.234375 8.265625 C 19.222656 8.921875 16.894531 9.25 14.25 9.25 C 11.6875 9.25 9.410156 8.859375 7.421875 8.078125 C 5.429688 7.304688 3.867188 6.15625 2.734375 4.625 C 1.609375 3.09375 1.046875 1.175781 1.046875 -1.125 Z M 17.890625 18.53125 C 17.117188 18.53125 16.457031 18.265625 15.90625 17.734375 C 15.351562 17.203125 15.078125 16.550781 15.078125 15.78125 C 15.078125 15 15.351562 14.328125 15.90625 13.765625 C 16.457031 13.210938 17.117188 12.9375 17.890625 12.9375 C 18.640625 12.9375 19.28125 13.210938 19.8125 13.765625 C 20.34375 14.328125 20.609375 15 20.609375 15.78125 C 20.609375 16.550781 20.34375 17.203125 19.8125 17.734375 C 19.28125 18.265625 18.640625 18.53125 17.890625 18.53125 Z M 10.96875 18.53125 C 10.1875 18.53125 9.519531 18.265625 8.96875 17.734375 C 8.425781 17.203125 8.15625 16.550781 8.15625 15.78125 C 8.15625 15 8.425781 14.328125 8.96875 13.765625 C 9.519531 13.210938 10.1875 12.9375 10.96875 12.9375 C 11.707031 12.9375 12.34375 13.210938 12.875 13.765625 C 13.414062 14.328125 13.6875 15 13.6875 15.78125 C 13.6875 16.550781 13.414062 17.203125 12.875 17.734375 C 12.34375 18.265625 11.707031 18.53125 10.96875 18.53125 Z M 10.96875 18.53125 "/></g></g></g><g fill="#008f88" fill-opacity="1"><g transform="translate(116.044643, 278.637656)"><g><path d="M 18.015625 0.203125 L 18.421875 -5.40625 C 19.378906 -5.40625 20.203125 -5.5 20.890625 -5.6875 C 21.585938 -5.875 22.175781 -6.253906 22.65625 -6.828125 C 23.132812 -7.398438 23.539062 -8.242188 23.875 -9.359375 C 24.207031 -10.484375 24.507812 -11.976562 24.78125 -13.84375 L 30.03125 -12.96875 C 29.914062 -12.351562 29.789062 -11.617188 29.65625 -10.765625 C 29.53125 -9.910156 29.46875 -9.125 29.46875 -8.40625 C 29.46875 -7.445312 29.863281 -6.707031 30.65625 -6.1875 C 31.457031 -5.664062 32.832031 -5.40625 34.78125 -5.40625 C 35.769531 -5.40625 36.484375 -5.144531 36.921875 -4.625 C 37.367188 -4.101562 37.59375 -3.457031 37.59375 -2.6875 C 37.59375 -1.851562 37.316406 -1.160156 36.765625 -0.609375 C 36.222656 -0.0664062 35.429688 0.203125 34.390625 0.203125 C 32.523438 0.203125 30.929688 -0.0351562 29.609375 -0.515625 C 28.285156 -0.992188 27.316406 -1.847656 26.703125 -3.078125 C 25.984375 -2.117188 25.132812 -1.40625 24.15625 -0.9375 C 23.1875 -0.46875 22.171875 -0.160156 21.109375 -0.015625 C 20.054688 0.128906 19.023438 0.203125 18.015625 0.203125 Z M 23.9375 -17.484375 C 23.164062 -17.484375 22.503906 -17.753906 21.953125 -18.296875 C 21.410156 -18.847656 21.140625 -19.5 21.140625 -20.25 C 21.140625 -21.019531 21.410156 -21.6875 21.953125 -22.25 C 22.503906 -22.8125 23.164062 -23.09375 23.9375 -23.09375 C 24.6875 -23.09375 25.328125 -22.8125 25.859375 -22.25 C 26.390625 -21.6875 26.65625 -21.019531 26.65625 -20.25 C 26.65625 -19.5 26.390625 -18.847656 25.859375 -18.296875 C 25.328125 -17.753906 24.6875 -17.484375 23.9375 -17.484375 Z M 30.859375 -17.453125 C 30.085938 -17.453125 29.425781 -17.71875 28.875 -18.25 C 28.332031 -18.78125 28.0625 -19.429688 28.0625 -20.203125 C 28.0625 -20.984375 28.332031 -21.648438 28.875 -22.203125 C 29.425781 -22.765625 30.085938 -23.046875 30.859375 -23.046875 C 31.609375 -23.046875 32.25 -22.765625 32.78125 -22.203125 C 33.320312 -21.648438 33.59375 -20.984375 33.59375 -20.203125 C 33.59375 -19.429688 33.320312 -18.78125 32.78125 -18.25 C 32.25 -17.71875 31.609375 -17.453125 30.859375 -17.453125 Z M 0.640625 9.25 L -1.40625 4.28125 C 0.488281 3.613281 2.171875 2.832031 3.640625 1.9375 C 5.109375 1.039062 6.257812 0.015625 7.09375 -1.140625 C 7.9375 -2.296875 8.359375 -3.597656 8.359375 -5.046875 C 8.359375 -6.160156 8.101562 -7.382812 7.59375 -8.71875 C 7.09375 -10.0625 6.484375 -11.425781 5.765625 -12.8125 L 11.015625 -15.328125 C 11.460938 -14.503906 11.875 -13.617188 12.25 -12.671875 C 12.625 -11.722656 12.929688 -10.875 13.171875 -10.125 C 13.410156 -9.375 13.570312 -8.867188 13.65625 -8.609375 C 14.03125 -7.328125 14.539062 -6.472656 15.1875 -6.046875 C 15.84375 -5.617188 16.90625 -5.40625 18.375 -5.40625 C 19.363281 -5.40625 20.082031 -5.144531 20.53125 -4.625 C 20.988281 -4.101562 21.21875 -3.457031 21.21875 -2.6875 C 21.21875 -1.851562 20.9375 -1.160156 20.375 -0.609375 C 19.8125 -0.0664062 19.007812 0.203125 17.96875 0.203125 C 15.945312 0.203125 14.398438 -0.34375 13.328125 -1.4375 C 12.878906 0.21875 12.019531 1.742188 10.75 3.140625 C 9.476562 4.546875 7.960938 5.765625 6.203125 6.796875 C 4.441406 7.835938 2.585938 8.65625 0.640625 9.25 Z M 0.640625 9.25 "/></g></g></g><g fill="#008f88" fill-opacity="1"><g transform="translate(150.433725, 278.637656)"><g><path d="M 0 0.203125 L 0.40625 -5.40625 C 0.988281 -5.40625 1.503906 -5.554688 1.953125 -5.859375 C 2.410156 -6.171875 2.878906 -6.6875 3.359375 -7.40625 C 3.835938 -8.125 4.398438 -9.125 5.046875 -10.40625 C 6.242188 -12.8125 7.515625 -14.457031 8.859375 -15.34375 C 10.210938 -16.238281 11.597656 -16.6875 13.015625 -16.6875 C 14.585938 -16.6875 16 -16.242188 17.25 -15.359375 C 18.507812 -14.484375 19.5 -13.34375 20.21875 -11.9375 C 20.9375 -10.539062 21.296875 -9.054688 21.296875 -7.484375 C 21.296875 -6.066406 20.992188 -4.789062 20.390625 -3.65625 C 19.796875 -2.53125 18.96875 -1.640625 17.90625 -0.984375 C 16.851562 -0.328125 15.648438 0 14.296875 0 C 13.273438 0 12.109375 -0.144531 10.796875 -0.4375 C 9.492188 -0.726562 8.125 -1.34375 6.6875 -2.28125 C 5.851562 -1.34375 4.929688 -0.691406 3.921875 -0.328125 C 2.910156 0.0234375 1.601562 0.203125 0 0.203125 Z M 12.84375 -11.09375 C 12.070312 -11.09375 11.457031 -10.703125 11 -9.921875 C 10.550781 -9.148438 10.019531 -8.125 9.40625 -6.84375 C 10.226562 -6.414062 10.992188 -6.101562 11.703125 -5.90625 C 12.410156 -5.707031 13.019531 -5.609375 13.53125 -5.609375 C 14.332031 -5.609375 14.921875 -5.726562 15.296875 -5.96875 C 15.671875 -6.207031 15.859375 -6.632812 15.859375 -7.25 C 15.859375 -7.8125 15.722656 -8.382812 15.453125 -8.96875 C 15.179688 -9.550781 14.816406 -10.050781 14.359375 -10.46875 C 13.910156 -10.882812 13.40625 -11.09375 12.84375 -11.09375 Z M 12.84375 -11.09375 "/></g></g></g><g fill="#008f88" fill-opacity="1"><g transform="translate(173.733433, 278.637656)"><g><path d="M 2.28125 9.203125 L 1.125 3.609375 C 3.519531 3.304688 5.535156 2.921875 7.171875 2.453125 C 8.816406 1.992188 10.097656 1.242188 11.015625 0.203125 L 9.921875 0.203125 C 7.421875 0.203125 5.453125 -0.253906 4.015625 -1.171875 C 2.585938 -2.097656 1.875 -3.679688 1.875 -5.921875 C 1.875 -7.117188 2.082031 -8.316406 2.5 -9.515625 C 2.914062 -10.722656 3.492188 -11.828125 4.234375 -12.828125 C 4.984375 -13.828125 5.859375 -14.625 6.859375 -15.21875 C 7.859375 -15.820312 8.945312 -16.125 10.125 -16.125 C 11.695312 -16.125 13.085938 -15.628906 14.296875 -14.640625 C 15.515625 -13.660156 16.460938 -12.351562 17.140625 -10.71875 C 17.828125 -9.09375 18.171875 -7.320312 18.171875 -5.40625 L 21.34375 -5.40625 C 22.320312 -5.40625 23.035156 -5.144531 23.484375 -4.625 C 23.941406 -4.101562 24.171875 -3.457031 24.171875 -2.6875 C 24.171875 -1.851562 23.890625 -1.160156 23.328125 -0.609375 C 22.773438 -0.0664062 21.976562 0.203125 20.9375 0.203125 L 17.25 0.203125 C 16.207031 2.972656 14.398438 5.113281 11.828125 6.625 C 9.253906 8.132812 6.070312 8.992188 2.28125 9.203125 Z M 7.40625 -6.890625 C 7.40625 -6.585938 7.503906 -6.285156 7.703125 -5.984375 C 7.898438 -5.679688 8.359375 -5.441406 9.078125 -5.265625 C 9.804688 -5.085938 10.957031 -5.066406 12.53125 -5.203125 C 12.5 -6.753906 12.242188 -7.972656 11.765625 -8.859375 C 11.285156 -9.753906 10.660156 -10.203125 9.890625 -10.203125 C 9.328125 -10.203125 8.859375 -10.007812 8.484375 -9.625 C 8.109375 -9.238281 7.832031 -8.785156 7.65625 -8.265625 C 7.488281 -7.742188 7.40625 -7.285156 7.40625 -6.890625 Z M 7.40625 -6.890625 "/></g></g></g><g fill="#008f88" fill-opacity="1"><g transform="translate(194.711177, 278.637656)"><g><path d="M 0 0.203125 L 0.40625 -5.40625 C 3.28125 -5.40625 6.078125 -5.722656 8.796875 -6.359375 C 11.523438 -7.003906 13.941406 -8.035156 16.046875 -9.453125 C 14.828125 -10.171875 13.472656 -10.726562 11.984375 -11.125 C 10.503906 -11.53125 8.882812 -11.734375 7.125 -11.734375 C 6.457031 -11.734375 5.769531 -11.695312 5.0625 -11.625 C 4.351562 -11.5625 3.640625 -11.445312 2.921875 -11.28125 L 2.125 -16.765625 C 2.894531 -16.953125 3.707031 -17.097656 4.5625 -17.203125 C 5.414062 -17.316406 6.191406 -17.375 6.890625 -17.375 C 8.703125 -17.375 10.328125 -17.132812 11.765625 -16.65625 C 13.210938 -16.175781 14.53125 -15.613281 15.71875 -14.96875 C 16.90625 -14.332031 18.007812 -13.769531 19.03125 -13.28125 C 20.0625 -12.800781 21.070312 -12.5625 22.0625 -12.5625 L 23.53125 -12.5625 L 24.171875 -7.25 C 23.585938 -7.21875 23.03125 -7.132812 22.5 -7 C 21.96875 -6.875 21.445312 -6.71875 20.9375 -6.53125 C 21.601562 -6.101562 22.398438 -5.804688 23.328125 -5.640625 C 24.265625 -5.484375 25.347656 -5.40625 26.578125 -5.40625 C 27.597656 -5.40625 28.320312 -5.144531 28.75 -4.625 C 29.175781 -4.101562 29.390625 -3.457031 29.390625 -2.6875 C 29.390625 -1.851562 29.113281 -1.160156 28.5625 -0.609375 C 28.007812 -0.0664062 27.21875 0.203125 26.1875 0.203125 C 24.050781 0.203125 22.164062 -0.101562 20.53125 -0.71875 C 18.90625 -1.332031 17.597656 -2.535156 16.609375 -4.328125 C 15.378906 -3.628906 14.023438 -2.929688 12.546875 -2.234375 C 11.066406 -1.546875 9.3125 -0.96875 7.28125 -0.5 C 5.257812 -0.03125 2.832031 0.203125 0 0.203125 Z M 6.875 -21.5 C 6.050781 -21.5 5.351562 -21.773438 4.78125 -22.328125 C 4.207031 -22.890625 3.921875 -23.585938 3.921875 -24.421875 C 3.921875 -25.242188 4.207031 -25.945312 4.78125 -26.53125 C 5.351562 -27.125 6.050781 -27.421875 6.875 -27.421875 C 7.675781 -27.421875 8.363281 -27.125 8.9375 -26.53125 C 9.507812 -25.945312 9.796875 -25.242188 9.796875 -24.421875 C 9.796875 -23.585938 9.507812 -22.890625 8.9375 -22.328125 C 8.363281 -21.773438 7.675781 -21.5 6.875 -21.5 Z M 6.875 -21.5 "/></g></g></g><g fill="#008f88" fill-opacity="1"><g transform="translate(220.893318, 278.637656)"><g><path d="M 0 0.203125 L 0.40625 -5.40625 C 1.363281 -5.40625 2.1875 -5.5 2.875 -5.6875 C 3.570312 -5.875 4.160156 -6.253906 4.640625 -6.828125 C 5.117188 -7.398438 5.523438 -8.242188 5.859375 -9.359375 C 6.191406 -10.484375 6.492188 -11.976562 6.765625 -13.84375 L 12.015625 -12.96875 C 11.898438 -12.351562 11.773438 -11.617188 11.640625 -10.765625 C 11.515625 -9.910156 11.453125 -9.125 11.453125 -8.40625 C 11.453125 -7.445312 11.847656 -6.707031 12.640625 -6.1875 C 13.441406 -5.664062 14.816406 -5.40625 16.765625 -5.40625 C 17.753906 -5.40625 18.46875 -5.144531 18.90625 -4.625 C 19.351562 -4.101562 19.578125 -3.457031 19.578125 -2.6875 C 19.578125 -1.851562 19.300781 -1.160156 18.75 -0.609375 C 18.207031 -0.0664062 17.414062 0.203125 16.375 0.203125 C 14.507812 0.203125 12.914062 -0.0351562 11.59375 -0.515625 C 10.269531 -0.992188 9.300781 -1.847656 8.6875 -3.078125 C 7.96875 -2.117188 7.117188 -1.40625 6.140625 -0.9375 C 5.171875 -0.46875 4.15625 -0.160156 3.09375 -0.015625 C 2.039062 0.128906 1.007812 0.203125 0 0.203125 Z M 11.171875 9.484375 C 10.398438 9.484375 9.738281 9.21875 9.1875 8.6875 C 8.632812 8.15625 8.359375 7.503906 8.359375 6.734375 C 8.359375 5.953125 8.632812 5.28125 9.1875 4.71875 C 9.738281 4.164062 10.398438 3.890625 11.171875 3.890625 C 11.921875 3.890625 12.5625 4.164062 13.09375 4.71875 C 13.625 5.28125 13.890625 5.953125 13.890625 6.734375 C 13.890625 7.503906 13.625 8.15625 13.09375 8.6875 C 12.5625 9.21875 11.921875 9.484375 11.171875 9.484375 Z M 4.25 9.484375 C 3.46875 9.484375 2.800781 9.21875 2.25 8.6875 C 1.707031 8.15625 1.4375 7.503906 1.4375 6.734375 C 1.4375 5.953125 1.707031 5.28125 2.25 4.71875 C 2.800781 4.164062 3.46875 3.890625 4.25 3.890625 C 4.988281 3.890625 5.625 4.164062 6.15625 4.71875 C 6.695312 5.28125 6.96875 5.953125 6.96875 6.734375 C 6.96875 7.503906 6.695312 8.15625 6.15625 8.6875 C 5.625 9.21875 4.988281 9.484375 4.25 9.484375 Z M 4.25 9.484375 "/></g></g></g><g fill="#008f88" fill-opacity="1"><g transform="translate(237.267177, 278.637656)"><g><path d="M 0 0.203125 L 0.40625 -5.40625 C 1.28125 -5.40625 2 -5.476562 2.5625 -5.625 C 3.125 -5.769531 3.582031 -6.101562 3.9375 -6.625 C 4.300781 -7.144531 4.625 -7.929688 4.90625 -8.984375 C 5.1875 -10.035156 5.5 -11.472656 5.84375 -13.296875 L 11.046875 -12.328125 C 10.941406 -11.742188 10.800781 -11.007812 10.625 -10.125 C 10.457031 -9.25 10.375 -8.488281 10.375 -7.84375 C 10.375 -7.09375 10.601562 -6.5 11.0625 -6.0625 C 11.53125 -5.625 12.429688 -5.40625 13.765625 -5.40625 C 14.460938 -5.40625 15.054688 -5.476562 15.546875 -5.625 C 16.046875 -5.769531 16.472656 -6.101562 16.828125 -6.625 C 17.191406 -7.144531 17.515625 -7.957031 17.796875 -9.0625 C 18.078125 -10.175781 18.347656 -11.679688 18.609375 -13.578125 L 23.90625 -12.734375 C 23.738281 -11.796875 23.570312 -10.804688 23.40625 -9.765625 C 23.25 -8.722656 23.171875 -7.9375 23.171875 -7.40625 C 23.171875 -6.875 23.414062 -6.40625 23.90625 -6 C 24.40625 -5.601562 25.40625 -5.40625 26.90625 -5.40625 C 29.25 -5.40625 30.421875 -6.457031 30.421875 -8.5625 C 30.421875 -9.46875 30.382812 -10.5 30.3125 -11.65625 C 30.25 -12.820312 30.113281 -14.273438 29.90625 -16.015625 L 35.0625 -16.40625 C 35.25 -14.113281 35.460938 -12.242188 35.703125 -10.796875 C 35.941406 -9.359375 36.269531 -8.242188 36.6875 -7.453125 C 37.101562 -6.671875 37.664062 -6.132812 38.375 -5.84375 C 39.082031 -5.550781 40.007812 -5.40625 41.15625 -5.40625 C 42.164062 -5.40625 42.890625 -5.144531 43.328125 -4.625 C 43.773438 -4.101562 44 -3.457031 44 -2.6875 C 44 -1.851562 43.722656 -1.160156 43.171875 -0.609375 C 42.628906 -0.0664062 41.820312 0.203125 40.75 0.203125 C 39.875 0.203125 38.96875 0.109375 38.03125 -0.078125 C 37.09375 -0.265625 36.21875 -0.648438 35.40625 -1.234375 C 34.59375 -1.828125 33.929688 -2.710938 33.421875 -3.890625 C 32.835938 -2.253906 31.984375 -1.160156 30.859375 -0.609375 C 29.742188 -0.0664062 28.289062 0.203125 26.5 0.203125 C 25.082031 0.203125 23.851562 -0.015625 22.8125 -0.453125 C 21.769531 -0.898438 21.035156 -1.65625 20.609375 -2.71875 C 20.109375 -1.863281 19.535156 -1.226562 18.890625 -0.8125 C 18.253906 -0.40625 17.492188 -0.132812 16.609375 0 C 15.734375 0.132812 14.691406 0.203125 13.484375 0.203125 C 12.765625 0.203125 12.050781 0.144531 11.34375 0.03125 C 10.632812 -0.0703125 9.96875 -0.316406 9.34375 -0.703125 C 8.71875 -1.085938 8.191406 -1.707031 7.765625 -2.5625 C 6.859375 -1.363281 5.75 -0.601562 4.4375 -0.28125 C 3.132812 0.0390625 1.65625 0.203125 0 0.203125 Z M 0 0.203125 "/></g></g></g><g fill="#008f88" fill-opacity="1"><g transform="translate(278.061676, 278.637656)"><g><path d="M 0 0.203125 L 0.40625 -5.40625 C 2.132812 -5.40625 3.34375 -5.597656 4.03125 -5.984375 C 4.726562 -6.367188 5.078125 -7.191406 5.078125 -8.453125 C 5.078125 -9.191406 4.976562 -10.082031 4.78125 -11.125 C 4.582031 -12.164062 4.320312 -13.238281 4 -14.34375 C 3.675781 -15.457031 3.359375 -16.492188 3.046875 -17.453125 L 8.5625 -18.96875 C 8.882812 -18.0625 9.203125 -17.007812 9.515625 -15.8125 C 9.835938 -14.613281 10.113281 -13.375 10.34375 -12.09375 C 10.570312 -10.8125 10.6875 -9.597656 10.6875 -8.453125 C 10.6875 -6.628906 10.40625 -5.148438 9.84375 -4.015625 C 9.28125 -2.890625 8.5 -2.019531 7.5 -1.40625 C 6.5 -0.789062 5.359375 -0.367188 4.078125 -0.140625 C 2.796875 0.0859375 1.4375 0.203125 0 0.203125 Z M 4.921875 9.40625 C 4.148438 9.40625 3.488281 9.132812 2.9375 8.59375 C 2.394531 8.0625 2.125 7.410156 2.125 6.640625 C 2.125 5.867188 2.394531 5.195312 2.9375 4.625 C 3.488281 4.050781 4.148438 3.765625 4.921875 3.765625 C 5.671875 3.765625 6.320312 4.050781 6.875 4.625 C 7.4375 5.195312 7.71875 5.867188 7.71875 6.640625 C 7.71875 7.410156 7.4375 8.0625 6.875 8.59375 C 6.320312 9.132812 5.671875 9.40625 4.921875 9.40625 Z M 4.921875 9.40625 "/></g></g></g></svg>